# AST/ASF file generated using VICON BodyLanguage
# -----------------------------------------------
:version 1.10
:name VICON
:units
  mass 1.0
  length 0.45
  angle deg
:documentation
   .ast/.asf automatically generated from VICON data using
   VICON BodyBuilder and BodyLanguage model FoxedUp or BRILLIANT.MOD
:root
   order TX TY TZ RX RY RZ
   axis XYZ
   position 0 0 0  
   orientation 0 0 0 
:bonedata
  begin
     id 1 
     name lhipjoint
     direction 0.528046 -0.759594 0.379717 
     length 2.39752 
     axis 0 0 0  XYZ
  end
  begin
     id 2 
     name lfemur
     direction 0.34202 -0.939693 0  
     length 7.31175  
     axis 0 0 20  XYZ
    dof rx ry rz
    limits (-160.0 20.0)
           (-70.0 70.0)
           (-60.0 70.0)
  end
  begin
     id 3 
     name ltibia
     direction 0.34202 -0.939693 0   
     length 7.52482   
     axis 0 0 20   XYZ
    dof rx
    limits (-10.0 170.0)
  end
  begin
     id 4 
     name lfoot
     direction 0.0675379 -0.185559 0.980309   
     length 2.00961   
     axis -90 7.62852e-016 20   XYZ
    dof rx rz
    limits (-45.0 90.0)
           (-70.0 20.0)
  end
  begin
     id 5 
     name ltoes
     direction 1.5352e-011 -4.22286e-011 1   
     length 1.01383   
     axis -90 7.62852e-016 20   XYZ
    dof rx
    limits (-90.0 20.0)
  end
  begin
     id 6 
     name rhipjoint
     direction -0.510274 -0.769251 0.384544   
     length 2.36742  
     axis 0 0 0  XYZ 
  end
  begin
     id 7 
     name rfemur
     direction -0.34202 -0.939693 0   
     length 7.45325   
     axis 0 0 -20   XYZ
    dof rx ry rz
    limits (-160.0 20.0)
           (-70.0 70.0)
           (-70.0 60.0)
  end
  begin
     id 8 
     name rtibia
     direction -0.34202 -0.939693 0   
     length 7.49587   
     axis 0 0 -20   XYZ
    dof rx
    limits (-10.0 170.0)
 end
 begin
     id 9 
     name rfoot
     direction -0.106475 -0.292536 0.950308   
     length 2.20898  
     axis -90 -7.62852e-016 -20   XYZ
    dof rx rz
    limits (-45.0 90.0)
           (-20.0 70.0)
  end
  begin
     id 10 
     name rtoes
     direction -1.53597e-011 -4.22023e-011 1   
     length 1.10065   
     axis -90 -7.62852e-016 -20   XYZ
    dof rx
    limits (-90.0 20.0)
  end
  begin
     id 11 
     name lowerback
     direction 0.0260024 0.998026 -0.0571652   
     length 2.11214   
     axis 0 0 0   XYZ
    dof rx ry rz
    limits (-20.0 45.0)
           (-30.0 30.0)
           (-30.0 30.0)
  end
  begin
     id 12 
     name upperback
     direction 0.0216202 0.999542 -0.0211766   
     length 2.11689   
     axis 0 0 0   XYZ
    dof rx ry rz
    limits (-20.0 45.0)
           (-30.0 30.0)
           (-30.0 30.0)
  end
  begin
     id 13 
     name thorax
     direction 0.00883312 0.999944 0.00589057   
     length 2.11821   
     axis 0 0 0   XYZ
    dof rx ry rz
    limits (-20.0 45.0)
           (-30.0 30.0)
           (-30.0 30.0)
  end
  begin
     id 14 
     name lowerneck
     direction -0.059386 0.994433 0.0870401   
     length 1.81176   
     axis 0 0 0   XYZ
    dof rx ry rz
    limits (-20.0 45.0)
           (-30.0 30.0)
           (-30.0 30.0)
  end
  begin
     id 15 
     name upperneck
     direction 0.0506457 0.97328 -0.223967   
     length 1.82382   
     axis 0 0 0   XYZ
    dof rx ry rz
    limits (-20.0 45.0)
           (-30.0 30.0)
           (-30.0 30.0)
  end
  begin
     id 16
     name head
     direction 0.0205902 0.996147 -0.0852487  
     length 1.84805  
     axis 0 0 0   XYZ
    dof rx ry rz
    limits (-20.0 45.0)
           (-30.0 30.0)
           (-30.0 30.0)
  end
  begin
     id 17 
     name lclavicle
     direction 0.949493 0.303881 -0.0782325  
     length 3.60584  
     axis 0 0 0   XYZ
    dof ry rz
    limits (-20.0 10.0)
           (0.0 20.0)
  end
  begin
     id 18 
     name lhumerus
     direction 1 -4.48965e-011 1.48782e-027   
     length 4.95681   
     axis 180 -30 -90   XYZ
    dof rx ry rz
    limits (-60.0 90.0)
           (-90.0 90.0)
           (-90.0 90.0)
  end
  begin
     id 19
     name lradius
     direction 1 -4.48952e-011 2.06528e-027   
     length 3.40915   
     axis 180 -30 -90   XYZ
    dof rx
    limits (-10.0 170.0)
  end
  begin
     id 20
     name lwrist
     direction 1 -4.48964e-011 1.28021e-027   
     length 1.70457   
     axis -1.61767e-015 90 90   XYZ
    dof ry
    limits (-180.0 0.0)
 end
  begin
     id 21 
     name lhand
     direction 1 -4.49094e-011 2.54887e-027   
     length 0.616403   
     axis -1.63363e-015 90 90   XYZ
    dof rx rz
    limits (-90.0 90.0)
           (-45.0 45.0)
  end
  begin
     id 22 
     name lfingers
     direction 1 -4.49002e-011 5.11407e-027   
     length 0.49696   
     axis -3.26723e-015 90 90   XYZ
    dof rx
    limits (0.0 90.0)
  end
  begin
     id 23
     name lthumb
     direction 0.707107 -6.34998e-011 0.707107   
     length 0.713539   
     axis -90 45 -2.25915e-014   XYZ
    dof rx rz
    limits (-45.0 45.0)
           (-45.0 45.0)
  end
  begin
     id 24 
     name rclavicle
     direction -0.937751 0.334612 -0.0930482   
     length 3.46287  
     axis 0 0 0   XYZ 
    dof ry rz
    limits (-10.0 20.0)
           (-20.0 0.0)
  end
  begin
     id 25 
     name rhumerus
     direction -1 -4.48962e-011 3.59972e-027  
     length 5.352   
     axis 180 30 90   XYZ
    dof rx ry rz
    limits (-90.0 60.0)
           (-90.0 90.0)
           (-90.0 90.0)
  end
  begin
     id 26 
     name rradius
     direction -1 -4.48987e-011 -3.76925e-027   
     length 3.43721   
     axis 180 30 90   XYZ
    dof rx
    limits (-10.0 170.0)
  end
  begin
     id 27 
     name rwrist
     direction -1 -4.48943e-011 1.28112e-027   
     length 1.7186   
     axis -1.61767e-015 -90 -90   XYZ
    dof ry
    limits (-180.0 0.0)
  end
  begin
     id 28
     name rhand
     direction -1 -4.49027e-011 2.55483e-027   
     length 0.72009   
     axis -1.63363e-015 -90 -90   XYZ
    dof rx rz
    limits (-90.0 90.0)
           (-45.0 45.0)
  end
  begin
     id 29
     name rfingers
     direction -1 -4.48827e-011 5.14506e-027   
     length 0.580555   
     axis -3.26723e-015 -90 -90   XYZ
    dof rx
    limits (0.0 90.0)
  end
  begin
     id 30
     name rthumb
     direction -0.707107 -6.34936e-011 0.707107   
     length 0.833564   
     axis -90 -45 2.25915e-014   XYZ
    dof rx rz
    limits (-45.0 45.0)
           (-45.0 45.0)
  end
:hierarchy
  begin
    root lhipjoint rhipjoint lowerback
    lhipjoint lfemur
    lfemur ltibia
    ltibia lfoot
    lfoot ltoes
    rhipjoint rfemur
    rfemur rtibia
    rtibia rfoot
    rfoot rtoes
    lowerback upperback
    upperback thorax
    thorax lowerneck lclavicle rclavicle
    lowerneck upperneck
    upperneck head
    lclavicle lhumerus
    lhumerus lradius
    lradius lwrist
    lwrist lhand lthumb
    lhand lfingers
    rclavicle rhumerus
    rhumerus rradius
    rradius rwrist
    rwrist rhand rthumb
    rhand rfingers
  end

#!OML:ASF H:\Terrain\Patient Classification 1\Terrain2\Thursday\justin.ASF
:FULLY-SPECIFIED
:DEGREES
1
root 8.84142 17.0145 -33.6534 3.15508 1.46517 -7.39022
lowerback 6.00321 1.40332 8.30605
upperback 1.38484 2.45552 3.50936
thorax -1.73817 1.19502 -1.19322
lowerneck -15.0246 -3.32825 -8.35188
upperneck 28.4149 -3.33095 3.13258
head 12.0422 -1.97794 2.11727
rclavicle 4.29375e-014 4.21423e-014
rhumerus -22.4252 -6.39708 -78.1405
rradius 31.8762
rwrist -9.40403
rhand -19.0458 12.6156
rfingers 7.12502
rthumb 7.26099 -17.2398
lclavicle 4.29375e-014 4.21423e-014
lhumerus -35.1602 1.09084 86.3759
lradius 39.9772
lwrist 3.86946
lhand -15.7101 22.6356
lfingers 7.12502
lthumb 10.4798 52.3544
rfemur 0.392251 -5.0738 33.3266
rtibia 19.1798
rfoot -16.9066 -1.14275
rtoes 4.12645
lfemur -35.0062 2.72269 -11.6855
ltibia 40.1885
lfoot -12.6583 -3.32611
ltoes -5.63102
2
root 8.83165 17.013 -33.5502 3.28547 1.21886 -7.4793
lowerback 6.25117 0.904018 7.66556
upperback 1.18192 1.81577 4.25866
thorax -2.18576 0.863559 -0.0292348
lowerneck -15.2443 -2.78317 -9.74675
upperneck 28.849 -2.13032 3.1368
head 12.2075 -1.60242 2.54121
rclavicle -1.39149e-014 -8.74653e-015
rhumerus -21.9731 -3.43183 -78.0199
rradius 31.8868
rwrist -9.95266
rhand -19.4366 12.4262
rfingers 7.12502
rthumb 6.88366 -17.4419
lclavicle -1.39149e-014 -8.74653e-015
lhumerus -35.8377 3.87137 86.525
lradius 39.7276
lwrist 3.32611
lhand -15.7317 22.6668
lfingers 7.12502
lthumb 10.459 52.3866
rfemur 0.891053 -4.53918 33.4808
rtibia 18.7305
rfoot -16.8595 -1.38853
rtoes 4.27579
lfemur -35.2637 3.11772 -11.8025
ltibia 38.211
lfoot -12.3666 -3.60182
ltoes -5.90805
3
root 8.82815 17.0192 -33.4411 3.38434 1.08223 -7.35605
lowerback 5.50201 1.14426 7.90061
upperback 1.59355 2.02243 3.91932
thorax -1.30524 0.999111 -0.501244
lowerneck -15.2781 -2.90539 -9.47702
upperneck 28.4824 -2.4547 3.38914
head 12.0877 -1.67625 2.53697
rclavicle -1.97791e-014 -6.59965e-014
rhumerus -21.4052 -4.06878 -78.2857
rradius 32.1211
rwrist -10.0477
rhand -19.3338 12.1821
rfingers 7.12502
rthumb 6.98293 -17.6827
lclavicle -1.97791e-014 -6.59965e-014
lhumerus -35.0839 3.3778 86.4379
lradius 39.2728
lwrist 3.06004
lhand -15.4397 22.6479
lfingers 7.12502
lthumb 10.7407 52.3534
rfemur 1.35895 -4.62567 33.2597
rtibia 18.4266
rfoot -16.8617 -0.988544
rtoes 4.98824
lfemur -35.4073 3.45627 -12.2286
ltibia 36.1426
lfoot -12.0662 -4.08904
ltoes -7.10873
4
root 8.82594 17.0218 -33.3287 3.54765 0.864918 -7.19315
lowerback 5.42861 1.25708 7.5734
upperback 1.52853 2.15233 3.96184
thorax -1.33757 1.06195 -0.283864
lowerneck -15.2589 -2.89714 -9.51449
upperneck 28.5347 -2.41466 3.32627
head 12.1021 -1.67142 2.52637
rclavicle 1.22253e-014 -3.02153e-014
rhumerus -21.3893 -3.86063 -78.2191
rradius 32.3138
rwrist -10.136
rhand -18.8652 11.9625
rfingers 7.12502
rthumb 7.4353 -17.8868
lclavicle 1.22253e-014 -3.02153e-014
lhumerus -35.3117 3.49167 86.6047
lradius 39.1369
lwrist 3.01397
lhand -14.8968 22.2715
lfingers 7.12502
lthumb 11.2643 51.9491
rfemur 1.8961 -4.75717 32.9499
rtibia 17.9073
rfoot -16.703 -0.383876
rtoes 4.78425
lfemur -35.6265 3.70307 -12.6515
ltibia 34.1572
lfoot -11.9038 -4.56639
ltoes -7.03663
5
root 8.82567 17.0063 -33.2171 3.68084 0.625536 -7.54245
lowerback 5.29861 1.36649 8.19241
upperback 1.55035 2.31031 3.80893
thorax -1.2005 1.14427 -0.787087
lowerneck -15.3468 -2.91806 -9.27644
upperneck 28.5356 -2.53405 3.42391
head 12.1242 -1.686 2.50477
rclavicle 0 -1.59028e-015
rhumerus -21.3917 -3.82865 -78.5871
rradius 32.6157
rwrist -10.2791
rhand -18.7918 11.92
rfingers 7.12502
rthumb 7.50612 -17.9268
lclavicle 0 -1.59028e-015
lhumerus -35.2491 3.20612 86.4038
lradius 38.8366
lwrist 3.1332
lhand -14.905 22.138
lfingers 7.12502
lthumb 11.2564 51.816
rfemur 2.50583 -4.22785 33.328
rtibia 17.278
rfoot -16.5688 -0.501204
rtoes 4.60525
lfemur -35.9001 3.71721 -12.3471
ltibia 32.2819
lfoot -11.7636 -4.87036
ltoes -5.41863
6
root 8.82397 16.9938 -33.0993 3.78857 0.41571 -7.92326
lowerback 5.75048 1.43873 8.47944
upperback 1.13088 2.51129 3.87834
thorax -1.86634 1.2118 -0.90679
lowerneck -15.0645 -2.85202 -8.99542
upperneck 28.7047 -2.48713 3.21645
head 12.1216 -1.66636 2.38906
rclavicle -1.44119e-014 -4.05521e-014
rhumerus -22.074 -3.52357 -78.6581
rradius 32.944
rwrist -10.3465
rhand -18.6155 12.2179
rfingers 7.12502
rthumb 7.67625 -17.6227
lclavicle -1.44119e-014 -4.05521e-014
lhumerus -35.8472 3.17006 86.3938
lradius 38.4065
lwrist 2.95878
lhand -15.2086 22.6006
lfingers 7.12502
lthumb 10.9636 52.2944
rfemur 3.19178 -4.66143 33.6148
rtibia 16.4628
rfoot -16.4511 -0.165725
rtoes 2.60016
lfemur -36.1888 3.57767 -11.9698
ltibia 30.6094
lfoot -11.6817 -5.08599
ltoes -4.73644
7
root 8.81996 16.9911 -32.9798 3.96546 0.0541158 -7.93179
lowerback 5.1488 1.5802 8.26066
upperback 1.37909 2.59698 4.00097
thorax -1.27986 1.28025 -0.639957
lowerneck -15.0904 -2.83262 -8.96297
upperneck 28.4021 -2.39546 2.99231
head 11.9984 -1.64405 2.30753
rclavicle 1.49089e-014 2.62396e-014
rhumerus -21.3614 -3.48719 -78.5926
rradius 32.6079
rwrist -10.0493
rhand -18.5572 12.6874
rfingers 7.12502
rthumb 7.73251 -17.1512
lclavicle 1.49089e-014 2.62396e-014
lhumerus -35.4506 3.51172 86.6041
lradius 37.8357
lwrist 2.57684
lhand -15.3508 22.9134
lfingers 7.12502
lthumb 10.8264 52.6144
rfemur 3.99741 -4.7948 33.3732
rtibia 15.4576
rfoot -16.1069 0.978635
rtoes 5.35893
lfemur -36.5689 3.72477 -12.085
ltibia 29.1685
lfoot -11.608 -5.43563
ltoes -6.60497
8
root 8.8218 16.9945 -32.8637 4.05526 -0.282447 -7.99573
lowerback 5.24463 1.57504 8.52166
upperback 1.29373 2.61865 3.85085
thorax -1.40156 1.2842 -0.94448
lowerneck -15.2037 -2.73557 -8.8507
upperneck 28.5646 -2.28885 3.02612
head 12.0754 -1.58339 2.31886
rclavicle -1.02374e-014 -2.14687e-014
rhumerus -21.1502 -3.30934 -78.9721
rradius 32.356
rwrist -9.90243
rhand -18.88 12.6879
rfingers 7.12502
rthumb 7.42102 -17.1619
lclavicle -1.02374e-014 -2.14687e-014
lhumerus -35.6505 3.67435 86.334
lradius 37.3204
lwrist 2.23305
lhand -15.3993 22.4682
lfingers 7.12502
lthumb 10.7796 52.1716
rfemur 4.7821 -4.75654 33.2966
rtibia 14.5143
rfoot -15.6921 1.46559
rtoes 5.4304
lfemur -36.859 3.91857 -12.1489
ltibia 27.8496
lfoot -11.4398 -5.83522
ltoes -8.04637
9
root 8.82053 16.9947 -32.747 4.12722 -0.513766 -8.26592
lowerback 5.38938 1.60586 8.66696
upperback 1.14903 2.69903 3.9567
thorax -1.62562 1.3125 -0.92724
lowerneck -15.1334 -2.67967 -8.92885
upperneck 28.7332 -2.21048 3.07887
head 12.1242 -1.55427 2.36678
rclavicle -3.03147e-014 -5.56597e-014
rhumerus -21.3209 -2.85597 -79.0583
rradius 32.6004
rwrist -10.0959
rhand -19.1508 12.2965
rfingers 7.12502
rthumb 7.15958 -17.5624
lclavicle -3.03147e-014 -5.56597e-014
lhumerus -36.0526 3.83509 86.3769
lradius 36.8611
lwrist 1.88195
lhand -15.4482 21.7286
lfingers 7.12502
lthumb 10.7324 51.4345
rfemur 5.53539 -4.59482 33.514
rtibia 13.693
rfoot -15.4426 1.62913
rtoes 5.96367
lfemur -37.1015 3.55319 -11.7278
ltibia 26.6945
lfoot -11.2202 -5.85337
ltoes -7.69922
10
root 8.8144 16.9853 -32.6286 4.2858 -0.865685 -8.45454
lowerback 5.09025 1.71801 8.73
upperback 1.21318 2.80917 3.98872
thorax -1.38092 1.37691 -0.922269
lowerneck -14.9869 -2.66512 -8.90628
upperneck 28.6259 -2.21627 3.09634
head 12.0512 -1.55101 2.36771
rclavicle 3.00165e-014 2.94201e-014
rhumerus -21.2779 -2.77922 -79.2125
rradius 32.819
rwrist -9.90137
rhand -19.0725 12.4364
rfingers 7.12502
rthumb 7.2352 -17.4199
lclavicle 3.00165e-014 2.94201e-014
lhumerus -36.167 3.86672 86.4151
lradius 36.5837
lwrist 1.91376
lhand -15.3179 21.3237
lfingers 7.12502
lthumb 10.8581 51.023
rfemur 6.24372 -4.69505 33.5751
rtibia 12.9102
rfoot -15.2158 2.06516
rtoes 5.24628
lfemur -37.4233 3.0941 -11.2546
ltibia 25.7843
lfoot -11.1212 -5.59224
ltoes -8.2959
11
root 8.81576 16.9693 -32.5105 4.48602 -1.24254 -8.4619
lowerback 4.75114 1.8648 8.67678
upperback 1.27396 2.95377 3.96912
thorax -1.11774 1.45942 -0.905701
lowerneck -14.9078 -2.67793 -8.92691
upperneck 28.5177 -2.25172 3.14618
head 11.9953 -1.56107 2.38359
rclavicle -2.17669e-014 -3.26007e-014
rhumerus -21.157 -2.7433 -79.2913
rradius 32.9141
rwrist -9.75471
rhand -18.6919 12.5099
rfingers 7.12502
rthumb 7.60257 -17.3334
lclavicle -2.17669e-014 -3.26007e-014
lhumerus -36.1833 3.7353 86.5623
lradius 36.2872
lwrist 2.0635
lhand -15.2356 21.5882
lfingers 7.12502
lthumb 10.9375 51.2834
rfemur 6.88148 -5.02229 33.3553
rtibia 12.1753
rfoot -14.9138 2.75109
rtoes 2.88824
lfemur -37.8212 2.91943 -11.0929
ltibia 25.0934
lfoot -10.9842 -5.61654
ltoes -7.4463
12
root 8.82153 16.9608 -32.3895 4.64548 -1.48214 -8.50069
lowerback 4.69163 1.9023 8.27504
upperback 1.17423 2.99243 4.32344
thorax -1.22565 1.47378 -0.321829
lowerneck -15.0035 -2.61306 -9.28241
upperneck 28.7095 -2.00644 3.01068
head 12.0809 -1.51073 2.43153
rclavicle 4.25399e-014 4.53229e-014
rhumerus -21.3015 -1.89468 -78.9498
rradius 33.2368
rwrist -9.87705
rhand -18.4487 12.0669
rfingers 7.12502
rthumb 7.83724 -17.7679
lclavicle 4.25399e-014 4.53229e-014
lhumerus -36.4549 4.18968 87.0655
lradius 35.8346
lwrist 1.97703
lhand -15.3143 22.4497
lfingers 7.12502
lthumb 10.8616 52.1488
rfemur 7.44011 -5.38124 33.1576
rtibia 11.6442
rfoot -14.7071 3.43941
rtoes 0.75821
lfemur -38.1564 2.82482 -10.9694
ltibia 24.599
lfoot -10.7315 -5.90567
ltoes -5.05399
13
root 8.82775 16.9591 -32.2673 4.75786 -1.67471 -8.62046
lowerback 4.23078 1.85569 8.57306
upperback 1.41167 2.8654 4.2885
thorax -0.71148 1.43167 -0.491311
lowerneck -15.3581 -2.48758 -9.27002
upperneck 28.6933 -1.78394 2.98453
head 12.1303 -1.41182 2.45122
rclavicle -5.09883e-014 -5.88403e-014
rhumerus -20.966 -1.47929 -79.175
rradius 33.409
rwrist -9.60717
rhand -18.3101 12.1455
rfingers 7.12502
rthumb 7.97106 -17.6842
lclavicle -5.09883e-014 -5.88403e-014
lhumerus -36.1654 4.47984 86.9974
lradius 35.3229
lwrist 2.02337
lhand -15.1148 23.6312
lfingers 7.12502
lthumb 11.054 53.3201
rfemur 7.92664 -5.74776 33.0474
rtibia 11.3685
rfoot -14.7819 4.08749
rtoes -0.538617
lfemur -38.3575 3.06579 -10.9873
ltibia 24.2832
lfoot -10.5854 -6.16093
ltoes -5.79057
